<svg version="1.1" xmlns="http://www.w3.org/2000/svg" width="913" height="865"><desc>Created by Grid Painter http://grid-painter.appspot.com</desc><rect x="0" y="0" width="914" height="866" fill="#ffffff" stroke-width="0" /><path d="M144 0L144 24L168 24L168 0Z" fill="#010305" stroke-width="0" /><path d="M168 0L168 24L192 24L192 0Z" fill="#010305" stroke-width="0" /><path d="M192 0L192 24L216 24L216 0Z" fill="#010305" stroke-width="0" /><path d="M216 0L216 24L240 24L240 0Z" fill="#010305" stroke-width="0" /><path d="M240 0L240 24L264 24L264 0Z" fill="#010305" stroke-width="0" /><path d="M648 0L648 24L672 24L672 0Z" fill="#010305" stroke-width="0" /><path d="M672 0L672 24L696 24L696 0Z" fill="#010305" stroke-width="0" /><path d="M696 0L696 24L720 24L720 0Z" fill="#010305" stroke-width="0" /><path d="M720 0L720 24L744 24L744 0Z" fill="#010305" stroke-width="0" /><path d="M744 0L744 24L768 24L768 0Z" fill="#010305" stroke-width="0" /><path d="M96 24L96 48L120 48L120 24Z" fill="#010305" stroke-width="0" /><path d="M120 24L120 48L144 48L144 24Z" fill="#010305" stroke-width="0" /><path d="M144 24L144 48L168 48L168 24Z" fill="#f7ff19" stroke-width="0" /><path d="M168 24L168 48L192 48L192 24Z" fill="#f7ff19" stroke-width="0" /><path d="M192 24L192 48L216 48L216 24Z" fill="#f7ff19" stroke-width="0" /><path d="M216 24L216 48L240 48L240 24Z" fill="#f7ff19" stroke-width="0" /><path d="M240 24L240 48L264 48L264 24Z" fill="#f7ff19" stroke-width="0" /><path d="M264 24L264 48L288 48L288 24Z" fill="#010305" stroke-width="0" /><path d="M288 24L288 48L312 48L312 24Z" fill="#010305" stroke-width="0" /><path d="M600 24L600 48L624 48L624 24Z" fill="#010305" stroke-width="0" /><path d="M624 24L624 48L648 48L648 24Z" fill="#010305" stroke-width="0" /><path d="M648 24L648 48L672 48L672 24Z" fill="#f7ff19" stroke-width="0" /><path d="M672 24L672 48L696 48L696 24Z" fill="#f7ff19" stroke-width="0" /><path d="M696 24L696 48L720 48L720 24Z" fill="#f7ff19" stroke-width="0" /><path d="M720 24L720 48L744 48L744 24Z" fill="#f7ff19" stroke-width="0" /><path d="M744 24L744 48L768 48L768 24Z" fill="#f7ff19" stroke-width="0" /><path d="M768 24L768 48L792 48L792 24Z" fill="#010305" stroke-width="0" /><path d="M792 24L792 48L816 48L816 24Z" fill="#010305" stroke-width="0" /><path d="M72 48L72 72L96 72L96 48Z" fill="#010305" stroke-width="0" /><path d="M96 48L96 72L120 72L120 48Z" fill="#f7ff19" stroke-width="0" /><path d="M120 48L120 72L144 72L144 48Z" fill="#f7ff19" stroke-width="0" /><path d="M144 48L144 72L168 72L168 48Z" fill="#f7ff19" stroke-width="0" /><path d="M168 48L168 72L192 72L192 48Z" fill="#f7ff19" stroke-width="0" /><path d="M192 48L192 72L216 72L216 48Z" fill="#f7ff19" stroke-width="0" /><path d="M216 48L216 72L240 72L240 48Z" fill="#f7ff19" stroke-width="0" /><path d="M240 48L240 72L264 72L264 48Z" fill="#f7ff19" stroke-width="0" /><path d="M264 48L264 72L288 72L288 48Z" fill="#f7ff19" stroke-width="0" /><path d="M288 48L288 72L312 72L312 48Z" fill="#f7ff19" stroke-width="0" /><path d="M312 48L312 72L336 72L336 48Z" fill="#010305" stroke-width="0" /><path d="M576 48L576 72L600 72L600 48Z" fill="#010305" stroke-width="0" /><path d="M600 48L600 72L624 72L624 48Z" fill="#f7ff19" stroke-width="0" /><path d="M624 48L624 72L648 72L648 48Z" fill="#f7ff19" stroke-width="0" /><path d="M648 48L648 72L672 72L672 48Z" fill="#f7ff19" stroke-width="0" /><path d="M672 48L672 72L696 72L696 48Z" fill="#f7ff19" stroke-width="0" /><path d="M696 48L696 72L720 72L720 48Z" fill="#f7ff19" stroke-width="0" /><path d="M720 48L720 72L744 72L744 48Z" fill="#f7ff19" stroke-width="0" /><path d="M744 48L744 72L768 72L768 48Z" fill="#f7ff19" stroke-width="0" /><path d="M768 48L768 72L792 72L792 48Z" fill="#f7ff19" stroke-width="0" /><path d="M792 48L792 72L816 72L816 48Z" fill="#f7ff19" stroke-width="0" /><path d="M816 48L816 72L840 72L840 48Z" fill="#010305" stroke-width="0" /><path d="M48 72L48 96L72 96L72 72Z" fill="#010305" stroke-width="0" /><path d="M72 72L72 96L96 96L96 72Z" fill="#f7ff19" stroke-width="0" /><path d="M96 72L96 96L120 96L120 72Z" fill="#f7ff19" stroke-width="0" /><path d="M120 72L120 96L144 96L144 72Z" fill="#f7ff19" stroke-width="0" /><path d="M144 72L144 96L168 96L168 72Z" fill="#f7ff19" stroke-width="0" /><path d="M168 72L168 96L192 96L192 72Z" fill="#f7ff19" stroke-width="0" /><path d="M192 72L192 96L216 96L216 72Z" fill="#f7ff19" stroke-width="0" /><path d="M216 72L216 96L240 96L240 72Z" fill="#f7ff19" stroke-width="0" /><path d="M240 72L240 96L264 96L264 72Z" fill="#f7ff19" stroke-width="0" /><path d="M264 72L264 96L288 96L288 72Z" fill="#f7ff19" stroke-width="0" /><path d="M288 72L288 96L312 96L312 72Z" fill="#f7ff19" stroke-width="0" /><path d="M312 72L312 96L336 96L336 72Z" fill="#f7ff19" stroke-width="0" /><path d="M336 72L336 96L360 96L360 72Z" fill="#010305" stroke-width="0" /><path d="M552 72L552 96L576 96L576 72Z" fill="#010305" stroke-width="0" /><path d="M576 72L576 96L600 96L600 72Z" fill="#f7ff19" stroke-width="0" /><path d="M600 72L600 96L624 96L624 72Z" fill="#010305" stroke-width="0" /><path d="M624 72L624 96L648 96L648 72Z" fill="#010305" stroke-width="0" /><path d="M648 72L648 96L672 96L672 72Z" fill="#010305" stroke-width="0" /><path d="M672 72L672 96L696 96L696 72Z" fill="#f7ff19" stroke-width="0" /><path d="M696 72L696 96L720 96L720 72Z" fill="#f7ff19" stroke-width="0" /><path d="M720 72L720 96L744 96L744 72Z" fill="#f7ff19" stroke-width="0" /><path d="M744 72L744 96L768 96L768 72Z" fill="#010305" stroke-width="0" /><path d="M768 72L768 96L792 96L792 72Z" fill="#010305" stroke-width="0" /><path d="M792 72L792 96L816 96L816 72Z" fill="#010305" stroke-width="0" /><path d="M816 72L816 96L840 96L840 72Z" fill="#f7ff19" stroke-width="0" /><path d="M840 72L840 96L864 96L864 72Z" fill="#010305" stroke-width="0" /><path d="M24 96L24 120L48 120L48 96Z" fill="#010305" stroke-width="0" /><path d="M48 96L48 120L72 120L72 96Z" fill="#f7ff19" stroke-width="0" /><path d="M72 96L72 120L96 120L96 96Z" fill="#f7ff19" stroke-width="0" /><path d="M96 96L96 120L120 120L120 96Z" fill="#f7ff19" stroke-width="0" /><path d="M120 96L120 120L144 120L144 96Z" fill="#010305" stroke-width="0" /><path d="M144 96L144 120L168 120L168 96Z" fill="#010305" stroke-width="0" /><path d="M168 96L168 120L192 120L192 96Z" fill="#f7ff19" stroke-width="0" /><path d="M192 96L192 120L216 120L216 96Z" fill="#f7ff19" stroke-width="0" /><path d="M216 96L216 120L240 120L240 96Z" fill="#f7ff19" stroke-width="0" /><path d="M240 96L240 120L264 120L264 96Z" fill="#010305" stroke-width="0" /><path d="M264 96L264 120L288 120L288 96Z" fill="#010305" stroke-width="0" /><path d="M288 96L288 120L312 120L312 96Z" fill="#f7ff19" stroke-width="0" /><path d="M312 96L312 120L336 120L336 96Z" fill="#f7ff19" stroke-width="0" /><path d="M336 96L336 120L360 120L360 96Z" fill="#f7ff19" stroke-width="0" /><path d="M360 96L360 120L384 120L384 96Z" fill="#010305" stroke-width="0" /><path d="M528 96L528 120L552 120L552 96Z" fill="#010305" stroke-width="0" /><path d="M552 96L552 120L576 120L576 96Z" fill="#f7ff19" stroke-width="0" /><path d="M576 96L576 120L600 120L600 96Z" fill="#f7ff19" stroke-width="0" /><path d="M600 96L600 120L624 120L624 96Z" fill="#010305" stroke-width="0" /><path d="M624 96L624 120L648 120L648 96Z" fill="#010305" stroke-width="0" /><path d="M648 96L648 120L672 120L672 96Z" fill="#010305" stroke-width="0" /><path d="M672 96L672 120L696 120L696 96Z" fill="#f7ff19" stroke-width="0" /><path d="M696 96L696 120L720 120L720 96Z" fill="#f7ff19" stroke-width="0" /><path d="M720 96L720 120L744 120L744 96Z" fill="#f7ff19" stroke-width="0" /><path d="M744 96L744 120L768 120L768 96Z" fill="#010305" stroke-width="0" /><path d="M768 96L768 120L792 120L792 96Z" fill="#010305" stroke-width="0" /><path d="M792 96L792 120L816 120L816 96Z" fill="#010305" stroke-width="0" /><path d="M816 96L816 120L840 120L840 96Z" fill="#f7ff19" stroke-width="0" /><path d="M840 96L840 120L864 120L864 96Z" fill="#f7ff19" stroke-width="0" /><path d="M864 96L864 120L888 120L888 96Z" fill="#010305" stroke-width="0" /><path d="M24 120L24 144L48 144L48 120Z" fill="#010305" stroke-width="0" /><path d="M48 120L48 144L72 144L72 120Z" fill="#f7ff19" stroke-width="0" /><path d="M72 120L72 144L96 144L96 120Z" fill="#f7ff19" stroke-width="0" /><path d="M96 120L96 144L120 144L120 120Z" fill="#f7ff19" stroke-width="0" /><path d="M120 120L120 144L144 144L144 120Z" fill="#010305" stroke-width="0" /><path d="M144 120L144 144L168 144L168 120Z" fill="#010305" stroke-width="0" /><path d="M168 120L168 144L192 144L192 120Z" fill="#f7ff19" stroke-width="0" /><path d="M192 120L192 144L216 144L216 120Z" fill="#f7ff19" stroke-width="0" /><path d="M216 120L216 144L240 144L240 120Z" fill="#f7ff19" stroke-width="0" /><path d="M240 120L240 144L264 144L264 120Z" fill="#010305" stroke-width="0" /><path d="M264 120L264 144L288 144L288 120Z" fill="#010305" stroke-width="0" /><path d="M288 120L288 144L312 144L312 120Z" fill="#f7ff19" stroke-width="0" /><path d="M312 120L312 144L336 144L336 120Z" fill="#f7ff19" stroke-width="0" /><path d="M336 120L336 144L360 144L360 120Z" fill="#f7ff19" stroke-width="0" /><path d="M360 120L360 144L384 144L384 120Z" fill="#010305" stroke-width="0" /><path d="M528 120L528 144L552 144L552 120Z" fill="#010305" stroke-width="0" /><path d="M552 120L552 144L576 144L576 120Z" fill="#f7ff19" stroke-width="0" /><path d="M576 120L576 144L600 144L600 120Z" fill="#f7ff19" stroke-width="0" /><path d="M600 120L600 144L624 144L624 120Z" fill="#010305" stroke-width="0" /><path d="M624 120L624 144L648 144L648 120Z" fill="#010305" stroke-width="0" /><path d="M648 120L648 144L672 144L672 120Z" fill="#010305" stroke-width="0" /><path d="M672 120L672 144L696 144L696 120Z" fill="#f7ff19" stroke-width="0" /><path d="M696 120L696 144L720 144L720 120Z" fill="#f7ff19" stroke-width="0" /><path d="M720 120L720 144L744 144L744 120Z" fill="#f7ff19" stroke-width="0" /><path d="M744 120L744 144L768 144L768 120Z" fill="#010305" stroke-width="0" /><path d="M768 120L768 144L792 144L792 120Z" fill="#010305" stroke-width="0" /><path d="M792 120L792 144L816 144L816 120Z" fill="#010305" stroke-width="0" /><path d="M816 120L816 144L840 144L840 120Z" fill="#f7ff19" stroke-width="0" /><path d="M840 120L840 144L864 144L864 120Z" fill="#f7ff19" stroke-width="0" /><path d="M864 120L864 144L888 144L888 120Z" fill="#010305" stroke-width="0" /><path d="M0 144L0 168L24 168L24 144Z" fill="#010305" stroke-width="0" /><path d="M24 144L24 168L48 168L48 144Z" fill="#f7ff19" stroke-width="0" /><path d="M48 144L48 168L72 168L72 144Z" fill="#f7ff19" stroke-width="0" /><path d="M72 144L72 168L96 168L96 144Z" fill="#f7ff19" stroke-width="0" /><path d="M96 144L96 168L120 168L120 144Z" fill="#f7ff19" stroke-width="0" /><path d="M120 144L120 168L144 168L144 144Z" fill="#f7ff19" stroke-width="0" /><path d="M144 144L144 168L168 168L168 144Z" fill="#f7ff19" stroke-width="0" /><path d="M168 144L168 168L192 168L192 144Z" fill="#f7ff19" stroke-width="0" /><path d="M192 144L192 168L216 168L216 144Z" fill="#f7ff19" stroke-width="0" /><path d="M216 144L216 168L240 168L240 144Z" fill="#f7ff19" stroke-width="0" /><path d="M240 144L240 168L264 168L264 144Z" fill="#f7ff19" stroke-width="0" /><path d="M264 144L264 168L288 168L288 144Z" fill="#f7ff19" stroke-width="0" /><path d="M288 144L288 168L312 168L312 144Z" fill="#f7ff19" stroke-width="0" /><path d="M312 144L312 168L336 168L336 144Z" fill="#f7ff19" stroke-width="0" /><path d="M336 144L336 168L360 168L360 144Z" fill="#f7ff19" stroke-width="0" /><path d="M360 144L360 168L384 168L384 144Z" fill="#f7ff19" stroke-width="0" /><path d="M384 144L384 168L408 168L408 144Z" fill="#010305" stroke-width="0" /><path d="M504 144L504 168L528 168L528 144Z" fill="#010305" stroke-width="0" /><path d="M528 144L528 168L552 168L552 144Z" fill="#f7ff19" stroke-width="0" /><path d="M552 144L552 168L576 168L576 144Z" fill="#f7ff19" stroke-width="0" /><path d="M576 144L576 168L600 168L600 144Z" fill="#f7ff19" stroke-width="0" /><path d="M600 144L600 168L624 168L624 144Z" fill="#f7ff19" stroke-width="0" /><path d="M624 144L624 168L648 168L648 144Z" fill="#f7ff19" stroke-width="0" /><path d="M648 144L648 168L672 168L672 144Z" fill="#f7ff19" stroke-width="0" /><path d="M672 144L672 168L696 168L696 144Z" fill="#f7ff19" stroke-width="0" /><path d="M696 144L696 168L720 168L720 144Z" fill="#f7ff19" stroke-width="0" /><path d="M720 144L720 168L744 168L744 144Z" fill="#f7ff19" stroke-width="0" /><path d="M744 144L744 168L768 168L768 144Z" fill="#f7ff19" stroke-width="0" /><path d="M768 144L768 168L792 168L792 144Z" fill="#f7ff19" stroke-width="0" /><path d="M792 144L792 168L816 168L816 144Z" fill="#f7ff19" stroke-width="0" /><path d="M816 144L816 168L840 168L840 144Z" fill="#f7ff19" stroke-width="0" /><path d="M840 144L840 168L864 168L864 144Z" fill="#f7ff19" stroke-width="0" /><path d="M864 144L864 168L888 168L888 144Z" fill="#f7ff19" stroke-width="0" /><path d="M888 144L888 168L912 168L912 144Z" fill="#010305" stroke-width="0" /><path d="M0 168L0 192L24 192L24 168Z" fill="#010305" stroke-width="0" /><path d="M24 168L24 192L48 192L48 168Z" fill="#f7ff19" stroke-width="0" /><path d="M48 168L48 192L72 192L72 168Z" fill="#f7ff19" stroke-width="0" /><path d="M72 168L72 192L96 192L96 168Z" fill="#f7ff19" stroke-width="0" /><path d="M96 168L96 192L120 192L120 168Z" fill="#f7ff19" stroke-width="0" /><path d="M120 168L120 192L144 192L144 168Z" fill="#f7ff19" stroke-width="0" /><path d="M144 168L144 192L168 192L168 168Z" fill="#f7ff19" stroke-width="0" /><path d="M168 168L168 192L192 192L192 168Z" fill="#f7ff19" stroke-width="0" /><path d="M192 168L192 192L216 192L216 168Z" fill="#f7ff19" stroke-width="0" /><path d="M216 168L216 192L240 192L240 168Z" fill="#f7ff19" stroke-width="0" /><path d="M240 168L240 192L264 192L264 168Z" fill="#f7ff19" stroke-width="0" /><path d="M264 168L264 192L288 192L288 168Z" fill="#f7ff19" stroke-width="0" /><path d="M288 168L288 192L312 192L312 168Z" fill="#f7ff19" stroke-width="0" /><path d="M312 168L312 192L336 192L336 168Z" fill="#f7ff19" stroke-width="0" /><path d="M336 168L336 192L360 192L360 168Z" fill="#f7ff19" stroke-width="0" /><path d="M360 168L360 192L384 192L384 168Z" fill="#f7ff19" stroke-width="0" /><path d="M384 168L384 192L408 192L408 168Z" fill="#010305" stroke-width="0" /><path d="M504 168L504 192L528 192L528 168Z" fill="#010305" stroke-width="0" /><path d="M528 168L528 192L552 192L552 168Z" fill="#f7ff19" stroke-width="0" /><path d="M552 168L552 192L576 192L576 168Z" fill="#f7ff19" stroke-width="0" /><path d="M576 168L576 192L600 192L600 168Z" fill="#f7ff19" stroke-width="0" /><path d="M600 168L600 192L624 192L624 168Z" fill="#f7ff19" stroke-width="0" /><path d="M624 168L624 192L648 192L648 168Z" fill="#f7ff19" stroke-width="0" /><path d="M648 168L648 192L672 192L672 168Z" fill="#f7ff19" stroke-width="0" /><path d="M672 168L672 192L696 192L696 168Z" fill="#f7ff19" stroke-width="0" /><path d="M696 168L696 192L720 192L720 168Z" fill="#f7ff19" stroke-width="0" /><path d="M720 168L720 192L744 192L744 168Z" fill="#f7ff19" stroke-width="0" /><path d="M744 168L744 192L768 192L768 168Z" fill="#f7ff19" stroke-width="0" /><path d="M768 168L768 192L792 192L792 168Z" fill="#f7ff19" stroke-width="0" /><path d="M792 168L792 192L816 192L816 168Z" fill="#f7ff19" stroke-width="0" /><path d="M816 168L816 192L840 192L840 168Z" fill="#f7ff19" stroke-width="0" /><path d="M840 168L840 192L864 192L864 168Z" fill="#f7ff19" stroke-width="0" /><path d="M864 168L864 192L888 192L888 168Z" fill="#f7ff19" stroke-width="0" /><path d="M888 168L888 192L912 192L912 168Z" fill="#010305" stroke-width="0" /><path d="M0 192L0 216L24 216L24 192Z" fill="#010305" stroke-width="0" /><path d="M24 192L24 216L48 216L48 192Z" fill="#f7ff19" stroke-width="0" /><path d="M48 192L48 216L72 216L72 192Z" fill="#f7ff19" stroke-width="0" /><path d="M72 192L72 216L96 216L96 192Z" fill="#f7ff19" stroke-width="0" /><path d="M96 192L96 216L120 216L120 192Z" fill="#f7ff19" stroke-width="0" /><path d="M120 192L120 216L144 216L144 192Z" fill="#f7ff19" stroke-width="0" /><path d="M144 192L144 216L168 216L168 192Z" fill="#f7ff19" stroke-width="0" /><path d="M168 192L168 216L192 216L192 192Z" fill="#f7ff19" stroke-width="0" /><path d="M192 192L192 216L216 216L216 192Z" fill="#f7ff19" stroke-width="0" /><path d="M216 192L216 216L240 216L240 192Z" fill="#f7ff19" stroke-width="0" /><path d="M240 192L240 216L264 216L264 192Z" fill="#f7ff19" stroke-width="0" /><path d="M264 192L264 216L288 216L288 192Z" fill="#f7ff19" stroke-width="0" /><path d="M288 192L288 216L312 216L312 192Z" fill="#f7ff19" stroke-width="0" /><path d="M312 192L312 216L336 216L336 192Z" fill="#f7ff19" stroke-width="0" /><path d="M336 192L336 216L360 216L360 192Z" fill="#f7ff19" stroke-width="0" /><path d="M360 192L360 216L384 216L384 192Z" fill="#f7ff19" stroke-width="0" /><path d="M384 192L384 216L408 216L408 192Z" fill="#010305" stroke-width="0" /><path d="M504 192L504 216L528 216L528 192Z" fill="#010305" stroke-width="0" /><path d="M528 192L528 216L552 216L552 192Z" fill="#f7ff19" stroke-width="0" /><path d="M552 192L552 216L576 216L576 192Z" fill="#f7ff19" stroke-width="0" /><path d="M576 192L576 216L600 216L600 192Z" fill="#f7ff19" stroke-width="0" /><path d="M600 192L600 216L624 216L624 192Z" fill="#f7ff19" stroke-width="0" /><path d="M624 192L624 216L648 216L648 192Z" fill="#f7ff19" stroke-width="0" /><path d="M648 192L648 216L672 216L672 192Z" fill="#f7ff19" stroke-width="0" /><path d="M672 192L672 216L696 216L696 192Z" fill="#f7ff19" stroke-width="0" /><path d="M696 192L696 216L720 216L720 192Z" fill="#f7ff19" stroke-width="0" /><path d="M720 192L720 216L744 216L744 192Z" fill="#f7ff19" stroke-width="0" /><path d="M744 192L744 216L768 216L768 192Z" fill="#f7ff19" stroke-width="0" /><path d="M768 192L768 216L792 216L792 192Z" fill="#f7ff19" stroke-width="0" /><path d="M792 192L792 216L816 216L816 192Z" fill="#f7ff19" stroke-width="0" /><path d="M816 192L816 216L840 216L840 192Z" fill="#f7ff19" stroke-width="0" /><path d="M840 192L840 216L864 216L864 192Z" fill="#f7ff19" stroke-width="0" /><path d="M864 192L864 216L888 216L888 192Z" fill="#f7ff19" stroke-width="0" /><path d="M888 192L888 216L912 216L912 192Z" fill="#010305" stroke-width="0" /><path d="M0 216L0 240L24 240L24 216Z" fill="#010305" stroke-width="0" /><path d="M24 216L24 240L48 240L48 216Z" fill="#f7ff19" stroke-width="0" /><path d="M48 216L48 240L72 240L72 216Z" fill="#f7ff19" stroke-width="0" /><path d="M72 216L72 240L96 240L96 216Z" fill="#f7ff19" stroke-width="0" /><path d="M96 216L96 240L120 240L120 216Z" fill="#f7ff19" stroke-width="0" /><path d="M120 216L120 240L144 240L144 216Z" fill="#f7ff19" stroke-width="0" /><path d="M144 216L144 240L168 240L168 216Z" fill="#f7ff19" stroke-width="0" /><path d="M168 216L168 240L192 240L192 216Z" fill="#f7ff19" stroke-width="0" /><path d="M192 216L192 240L216 240L216 216Z" fill="#f7ff19" stroke-width="0" /><path d="M216 216L216 240L240 240L240 216Z" fill="#f7ff19" stroke-width="0" /><path d="M240 216L240 240L264 240L264 216Z" fill="#f7ff19" stroke-width="0" /><path d="M264 216L264 240L288 240L288 216Z" fill="#f7ff19" stroke-width="0" /><path d="M288 216L288 240L312 240L312 216Z" fill="#f7ff19" stroke-width="0" /><path d="M312 216L312 240L336 240L336 216Z" fill="#f7ff19" stroke-width="0" /><path d="M336 216L336 240L360 240L360 216Z" fill="#f7ff19" stroke-width="0" /><path d="M360 216L360 240L384 240L384 216Z" fill="#f7ff19" stroke-width="0" /><path d="M384 216L384 240L408 240L408 216Z" fill="#010305" stroke-width="0" /><path d="M504 216L504 240L528 240L528 216Z" fill="#010305" stroke-width="0" /><path d="M528 216L528 240L552 240L552 216Z" fill="#f7ff19" stroke-width="0" /><path d="M552 216L552 240L576 240L576 216Z" fill="#f7ff19" stroke-width="0" /><path d="M576 216L576 240L600 240L600 216Z" fill="#f7ff19" stroke-width="0" /><path d="M600 216L600 240L624 240L624 216Z" fill="#f7ff19" stroke-width="0" /><path d="M624 216L624 240L648 240L648 216Z" fill="#f7ff19" stroke-width="0" /><path d="M648 216L648 240L672 240L672 216Z" fill="#f7ff19" stroke-width="0" /><path d="M672 216L672 240L696 240L696 216Z" fill="#010305" stroke-width="0" /><path d="M696 216L696 240L720 240L720 216Z" fill="#010305" stroke-width="0" /><path d="M720 216L720 240L744 240L744 216Z" fill="#010305" stroke-width="0" /><path d="M744 216L744 240L768 240L768 216Z" fill="#f7ff19" stroke-width="0" /><path d="M768 216L768 240L792 240L792 216Z" fill="#f7ff19" stroke-width="0" /><path d="M792 216L792 240L816 240L816 216Z" fill="#f7ff19" stroke-width="0" /><path d="M816 216L816 240L840 240L840 216Z" fill="#f7ff19" stroke-width="0" /><path d="M840 216L840 240L864 240L864 216Z" fill="#f7ff19" stroke-width="0" /><path d="M864 216L864 240L888 240L888 216Z" fill="#f7ff19" stroke-width="0" /><path d="M888 216L888 240L912 240L912 216Z" fill="#010305" stroke-width="0" /><path d="M0 240L0 264L24 264L24 240Z" fill="#010305" stroke-width="0" /><path d="M24 240L24 264L48 264L48 240Z" fill="#f7ff19" stroke-width="0" /><path d="M48 240L48 264L72 264L72 240Z" fill="#f7ff19" stroke-width="0" /><path d="M72 240L72 264L96 264L96 240Z" fill="#f7ff19" stroke-width="0" /><path d="M96 240L96 264L120 264L120 240Z" fill="#010305" stroke-width="0" /><path d="M120 240L120 264L144 264L144 240Z" fill="#f7ff19" stroke-width="0" /><path d="M144 240L144 264L168 264L168 240Z" fill="#f7ff19" stroke-width="0" /><path d="M168 240L168 264L192 264L192 240Z" fill="#f7ff19" stroke-width="0" /><path d="M192 240L192 264L216 264L216 240Z" fill="#f7ff19" stroke-width="0" /><path d="M216 240L216 264L240 264L240 240Z" fill="#f7ff19" stroke-width="0" /><path d="M240 240L240 264L264 264L264 240Z" fill="#f7ff19" stroke-width="0" /><path d="M264 240L264 264L288 264L288 240Z" fill="#f7ff19" stroke-width="0" /><path d="M288 240L288 264L312 264L312 240Z" fill="#010305" stroke-width="0" /><path d="M312 240L312 264L336 264L336 240Z" fill="#f7ff19" stroke-width="0" /><path d="M336 240L336 264L360 264L360 240Z" fill="#f7ff19" stroke-width="0" /><path d="M360 240L360 264L384 264L384 240Z" fill="#f7ff19" stroke-width="0" /><path d="M384 240L384 264L408 264L408 240Z" fill="#010305" stroke-width="0" /><path d="M504 240L504 264L528 264L528 240Z" fill="#010305" stroke-width="0" /><path d="M528 240L528 264L552 264L552 240Z" fill="#f7ff19" stroke-width="0" /><path d="M552 240L552 264L576 264L576 240Z" fill="#f7ff19" stroke-width="0" /><path d="M576 240L576 264L600 264L600 240Z" fill="#f7ff19" stroke-width="0" /><path d="M600 240L600 264L624 264L624 240Z" fill="#f7ff19" stroke-width="0" /><path d="M624 240L624 264L648 264L648 240Z" fill="#f7ff19" stroke-width="0" /><path d="M648 240L648 264L672 264L672 240Z" fill="#f7ff19" stroke-width="0" /><path d="M672 240L672 264L696 264L696 240Z" fill="#010305" stroke-width="0" /><path d="M696 240L696 264L720 264L720 240Z" fill="#f7ff19" stroke-width="0" /><path d="M720 240L720 264L744 264L744 240Z" fill="#010305" stroke-width="0" /><path d="M744 240L744 264L768 264L768 240Z" fill="#f7ff19" stroke-width="0" /><path d="M768 240L768 264L792 264L792 240Z" fill="#f7ff19" stroke-width="0" /><path d="M792 240L792 264L816 264L816 240Z" fill="#f7ff19" stroke-width="0" /><path d="M816 240L816 264L840 264L840 240Z" fill="#f7ff19" stroke-width="0" /><path d="M840 240L840 264L864 264L864 240Z" fill="#f7ff19" stroke-width="0" /><path d="M864 240L864 264L888 264L888 240Z" fill="#f7ff19" stroke-width="0" /><path d="M888 240L888 264L912 264L912 240Z" fill="#010305" stroke-width="0" /><path d="M24 264L24 288L48 288L48 264Z" fill="#010305" stroke-width="0" /><path d="M48 264L48 288L72 288L72 264Z" fill="#f7ff19" stroke-width="0" /><path d="M72 264L72 288L96 288L96 264Z" fill="#f7ff19" stroke-width="0" /><path d="M96 264L96 288L120 288L120 264Z" fill="#f7ff19" stroke-width="0" /><path d="M120 264L120 288L144 288L144 264Z" fill="#010305" stroke-width="0" /><path d="M144 264L144 288L168 288L168 264Z" fill="#f7ff19" stroke-width="0" /><path d="M168 264L168 288L192 288L192 264Z" fill="#f7ff19" stroke-width="0" /><path d="M192 264L192 288L216 288L216 264Z" fill="#f7ff19" stroke-width="0" /><path d="M216 264L216 288L240 288L240 264Z" fill="#f7ff19" stroke-width="0" /><path d="M240 264L240 288L264 288L264 264Z" fill="#f7ff19" stroke-width="0" /><path d="M264 264L264 288L288 288L288 264Z" fill="#010305" stroke-width="0" /><path d="M288 264L288 288L312 288L312 264Z" fill="#f7ff19" stroke-width="0" /><path d="M312 264L312 288L336 288L336 264Z" fill="#f7ff19" stroke-width="0" /><path d="M336 264L336 288L360 288L360 264Z" fill="#f7ff19" stroke-width="0" /><path d="M360 264L360 288L384 288L384 264Z" fill="#010305" stroke-width="0" /><path d="M528 264L528 288L552 288L552 264Z" fill="#010305" stroke-width="0" /><path d="M552 264L552 288L576 288L576 264Z" fill="#f7ff19" stroke-width="0" /><path d="M576 264L576 288L600 288L600 264Z" fill="#f7ff19" stroke-width="0" /><path d="M600 264L600 288L624 288L624 264Z" fill="#f7ff19" stroke-width="0" /><path d="M624 264L624 288L648 288L648 264Z" fill="#f7ff19" stroke-width="0" /><path d="M648 264L648 288L672 288L672 264Z" fill="#010305" stroke-width="0" /><path d="M672 264L672 288L696 288L696 264Z" fill="#f7ff19" stroke-width="0" /><path d="M696 264L696 288L720 288L720 264Z" fill="#f7ff19" stroke-width="0" /><path d="M720 264L720 288L744 288L744 264Z" fill="#f7ff19" stroke-width="0" /><path d="M744 264L744 288L768 288L768 264Z" fill="#010305" stroke-width="0" /><path d="M768 264L768 288L792 288L792 264Z" fill="#f7ff19" stroke-width="0" /><path d="M792 264L792 288L816 288L816 264Z" fill="#f7ff19" stroke-width="0" /><path d="M816 264L816 288L840 288L840 264Z" fill="#f7ff19" stroke-width="0" /><path d="M840 264L840 288L864 288L864 264Z" fill="#f7ff19" stroke-width="0" /><path d="M864 264L864 288L888 288L888 264Z" fill="#010305" stroke-width="0" /><path d="M24 288L24 312L48 312L48 288Z" fill="#010305" stroke-width="0" /><path d="M48 288L48 312L72 312L72 288Z" fill="#f7ff19" stroke-width="0" /><path d="M72 288L72 312L96 312L96 288Z" fill="#f7ff19" stroke-width="0" /><path d="M96 288L96 312L120 312L120 288Z" fill="#f7ff19" stroke-width="0" /><path d="M120 288L120 312L144 312L144 288Z" fill="#f7ff19" stroke-width="0" /><path d="M144 288L144 312L168 312L168 288Z" fill="#010305" stroke-width="0" /><path d="M168 288L168 312L192 312L192 288Z" fill="#010305" stroke-width="0" /><path d="M192 288L192 312L216 312L216 288Z" fill="#010305" stroke-width="0" /><path d="M216 288L216 312L240 312L240 288Z" fill="#010305" stroke-width="0" /><path d="M240 288L240 312L264 312L264 288Z" fill="#010305" stroke-width="0" /><path d="M264 288L264 312L288 312L288 288Z" fill="#f7ff19" stroke-width="0" /><path d="M288 288L288 312L312 312L312 288Z" fill="#f7ff19" stroke-width="0" /><path d="M312 288L312 312L336 312L336 288Z" fill="#f7ff19" stroke-width="0" /><path d="M336 288L336 312L360 312L360 288Z" fill="#f7ff19" stroke-width="0" /><path d="M360 288L360 312L384 312L384 288Z" fill="#010305" stroke-width="0" /><path d="M528 288L528 312L552 312L552 288Z" fill="#010305" stroke-width="0" /><path d="M552 288L552 312L576 312L576 288Z" fill="#f7ff19" stroke-width="0" /><path d="M576 288L576 312L600 312L600 288Z" fill="#f7ff19" stroke-width="0" /><path d="M600 288L600 312L624 312L624 288Z" fill="#f7ff19" stroke-width="0" /><path d="M624 288L624 312L648 312L648 288Z" fill="#f7ff19" stroke-width="0" /><path d="M648 288L648 312L672 312L672 288Z" fill="#f7ff19" stroke-width="0" /><path d="M672 288L672 312L696 312L696 288Z" fill="#010305" stroke-width="0" /><path d="M696 288L696 312L720 312L720 288Z" fill="#f7ff19" stroke-width="0" /><path d="M720 288L720 312L744 312L744 288Z" fill="#010305" stroke-width="0" /><path d="M744 288L744 312L768 312L768 288Z" fill="#f7ff19" stroke-width="0" /><path d="M768 288L768 312L792 312L792 288Z" fill="#f7ff19" stroke-width="0" /><path d="M792 288L792 312L816 312L816 288Z" fill="#f7ff19" stroke-width="0" /><path d="M816 288L816 312L840 312L840 288Z" fill="#f7ff19" stroke-width="0" /><path d="M840 288L840 312L864 312L864 288Z" fill="#f7ff19" stroke-width="0" /><path d="M864 288L864 312L888 312L888 288Z" fill="#010305" stroke-width="0" /><path d="M48 312L48 336L72 336L72 312Z" fill="#010305" stroke-width="0" /><path d="M72 312L72 336L96 336L96 312Z" fill="#f7ff19" stroke-width="0" /><path d="M96 312L96 336L120 336L120 312Z" fill="#f7ff19" stroke-width="0" /><path d="M120 312L120 336L144 336L144 312Z" fill="#f7ff19" stroke-width="0" /><path d="M144 312L144 336L168 336L168 312Z" fill="#f7ff19" stroke-width="0" /><path d="M168 312L168 336L192 336L192 312Z" fill="#f7ff19" stroke-width="0" /><path d="M192 312L192 336L216 336L216 312Z" fill="#f7ff19" stroke-width="0" /><path d="M216 312L216 336L240 336L240 312Z" fill="#f7ff19" stroke-width="0" /><path d="M240 312L240 336L264 336L264 312Z" fill="#f7ff19" stroke-width="0" /><path d="M264 312L264 336L288 336L288 312Z" fill="#f7ff19" stroke-width="0" /><path d="M288 312L288 336L312 336L312 312Z" fill="#f7ff19" stroke-width="0" /><path d="M312 312L312 336L336 336L336 312Z" fill="#f7ff19" stroke-width="0" /><path d="M336 312L336 336L360 336L360 312Z" fill="#010305" stroke-width="0" /><path d="M552 312L552 336L576 336L576 312Z" fill="#010305" stroke-width="0" /><path d="M576 312L576 336L600 336L600 312Z" fill="#f7ff19" stroke-width="0" /><path d="M600 312L600 336L624 336L624 312Z" fill="#f7ff19" stroke-width="0" /><path d="M624 312L624 336L648 336L648 312Z" fill="#f7ff19" stroke-width="0" /><path d="M648 312L648 336L672 336L672 312Z" fill="#f7ff19" stroke-width="0" /><path d="M672 312L672 336L696 336L696 312Z" fill="#010305" stroke-width="0" /><path d="M696 312L696 336L720 336L720 312Z" fill="#010305" stroke-width="0" /><path d="M720 312L720 336L744 336L744 312Z" fill="#010305" stroke-width="0" /><path d="M744 312L744 336L768 336L768 312Z" fill="#f7ff19" stroke-width="0" /><path d="M768 312L768 336L792 336L792 312Z" fill="#f7ff19" stroke-width="0" /><path d="M792 312L792 336L816 336L816 312Z" fill="#f7ff19" stroke-width="0" /><path d="M816 312L816 336L840 336L840 312Z" fill="#f7ff19" stroke-width="0" /><path d="M840 312L840 336L864 336L864 312Z" fill="#010305" stroke-width="0" /><path d="M72 336L72 360L96 360L96 336Z" fill="#010305" stroke-width="0" /><path d="M96 336L96 360L120 360L120 336Z" fill="#f7ff19" stroke-width="0" /><path d="M120 336L120 360L144 360L144 336Z" fill="#f7ff19" stroke-width="0" /><path d="M144 336L144 360L168 360L168 336Z" fill="#f7ff19" stroke-width="0" /><path d="M168 336L168 360L192 360L192 336Z" fill="#f7ff19" stroke-width="0" /><path d="M192 336L192 360L216 360L216 336Z" fill="#f7ff19" stroke-width="0" /><path d="M216 336L216 360L240 360L240 336Z" fill="#f7ff19" stroke-width="0" /><path d="M240 336L240 360L264 360L264 336Z" fill="#f7ff19" stroke-width="0" /><path d="M264 336L264 360L288 360L288 336Z" fill="#f7ff19" stroke-width="0" /><path d="M288 336L288 360L312 360L312 336Z" fill="#f7ff19" stroke-width="0" /><path d="M312 336L312 360L336 360L336 336Z" fill="#010305" stroke-width="0" /><path d="M576 336L576 360L600 360L600 336Z" fill="#010305" stroke-width="0" /><path d="M600 336L600 360L624 360L624 336Z" fill="#f7ff19" stroke-width="0" /><path d="M624 336L624 360L648 360L648 336Z" fill="#f7ff19" stroke-width="0" /><path d="M648 336L648 360L672 360L672 336Z" fill="#f7ff19" stroke-width="0" /><path d="M672 336L672 360L696 360L696 336Z" fill="#f7ff19" stroke-width="0" /><path d="M696 336L696 360L720 360L720 336Z" fill="#f7ff19" stroke-width="0" /><path d="M720 336L720 360L744 360L744 336Z" fill="#f7ff19" stroke-width="0" /><path d="M744 336L744 360L768 360L768 336Z" fill="#f7ff19" stroke-width="0" /><path d="M768 336L768 360L792 360L792 336Z" fill="#f7ff19" stroke-width="0" /><path d="M792 336L792 360L816 360L816 336Z" fill="#f7ff19" stroke-width="0" /><path d="M816 336L816 360L840 360L840 336Z" fill="#010305" stroke-width="0" /><path d="M96 360L96 384L120 384L120 360Z" fill="#010305" stroke-width="0" /><path d="M120 360L120 384L144 384L144 360Z" fill="#010305" stroke-width="0" /><path d="M144 360L144 384L168 384L168 360Z" fill="#f7ff19" stroke-width="0" /><path d="M168 360L168 384L192 384L192 360Z" fill="#f7ff19" stroke-width="0" /><path d="M192 360L192 384L216 384L216 360Z" fill="#f7ff19" stroke-width="0" /><path d="M216 360L216 384L240 384L240 360Z" fill="#f7ff19" stroke-width="0" /><path d="M240 360L240 384L264 384L264 360Z" fill="#f7ff19" stroke-width="0" /><path d="M264 360L264 384L288 384L288 360Z" fill="#010305" stroke-width="0" /><path d="M288 360L288 384L312 384L312 360Z" fill="#010305" stroke-width="0" /><path d="M600 360L600 384L624 384L624 360Z" fill="#010305" stroke-width="0" /><path d="M624 360L624 384L648 384L648 360Z" fill="#010305" stroke-width="0" /><path d="M648 360L648 384L672 384L672 360Z" fill="#f7ff19" stroke-width="0" /><path d="M672 360L672 384L696 384L696 360Z" fill="#f7ff19" stroke-width="0" /><path d="M696 360L696 384L720 384L720 360Z" fill="#f7ff19" stroke-width="0" /><path d="M720 360L720 384L744 384L744 360Z" fill="#f7ff19" stroke-width="0" /><path d="M744 360L744 384L768 384L768 360Z" fill="#f7ff19" stroke-width="0" /><path d="M768 360L768 384L792 384L792 360Z" fill="#010305" stroke-width="0" /><path d="M792 360L792 384L816 384L816 360Z" fill="#010305" stroke-width="0" /><path d="M144 384L144 408L168 408L168 384Z" fill="#010305" stroke-width="0" /><path d="M168 384L168 408L192 408L192 384Z" fill="#010305" stroke-width="0" /><path d="M192 384L192 408L216 408L216 384Z" fill="#010305" stroke-width="0" /><path d="M216 384L216 408L240 408L240 384Z" fill="#010305" stroke-width="0" /><path d="M240 384L240 408L264 408L264 384Z" fill="#010305" stroke-width="0" /><path d="M648 384L648 408L672 408L672 384Z" fill="#010305" stroke-width="0" /><path d="M672 384L672 408L696 408L696 384Z" fill="#010305" stroke-width="0" /><path d="M696 384L696 408L720 408L720 384Z" fill="#010305" stroke-width="0" /><path d="M720 384L720 408L744 408L744 384Z" fill="#010305" stroke-width="0" /><path d="M744 384L744 408L768 408L768 384Z" fill="#010305" stroke-width="0" /><path d="M144 456L144 480L168 480L168 456Z" fill="#010305" stroke-width="0" /><path d="M168 456L168 480L192 480L192 456Z" fill="#010305" stroke-width="0" /><path d="M192 456L192 480L216 480L216 456Z" fill="#010305" stroke-width="0" /><path d="M216 456L216 480L240 480L240 456Z" fill="#010305" stroke-width="0" /><path d="M240 456L240 480L264 480L264 456Z" fill="#010305" stroke-width="0" /><path d="M648 456L648 480L672 480L672 456Z" fill="#010305" stroke-width="0" /><path d="M672 456L672 480L696 480L696 456Z" fill="#010305" stroke-width="0" /><path d="M696 456L696 480L720 480L720 456Z" fill="#010305" stroke-width="0" /><path d="M720 456L720 480L744 480L744 456Z" fill="#010305" stroke-width="0" /><path d="M744 456L744 480L768 480L768 456Z" fill="#010305" stroke-width="0" /><path d="M96 480L96 504L120 504L120 480Z" fill="#010305" stroke-width="0" /><path d="M120 480L120 504L144 504L144 480Z" fill="#010305" stroke-width="0" /><path d="M144 480L144 504L168 504L168 480Z" fill="#f7ff19" stroke-width="0" /><path d="M168 480L168 504L192 504L192 480Z" fill="#f7ff19" stroke-width="0" /><path d="M192 480L192 504L216 504L216 480Z" fill="#f7ff19" stroke-width="0" /><path d="M216 480L216 504L240 504L240 480Z" fill="#f7ff19" stroke-width="0" /><path d="M240 480L240 504L264 504L264 480Z" fill="#f7ff19" stroke-width="0" /><path d="M264 480L264 504L288 504L288 480Z" fill="#010305" stroke-width="0" /><path d="M288 480L288 504L312 504L312 480Z" fill="#010305" stroke-width="0" /><path d="M600 480L600 504L624 504L624 480Z" fill="#010305" stroke-width="0" /><path d="M624 480L624 504L648 504L648 480Z" fill="#010305" stroke-width="0" /><path d="M648 480L648 504L672 504L672 480Z" fill="#f7ff19" stroke-width="0" /><path d="M672 480L672 504L696 504L696 480Z" fill="#f7ff19" stroke-width="0" /><path d="M696 480L696 504L720 504L720 480Z" fill="#f7ff19" stroke-width="0" /><path d="M720 480L720 504L744 504L744 480Z" fill="#f7ff19" stroke-width="0" /><path d="M744 480L744 504L768 504L768 480Z" fill="#f7ff19" stroke-width="0" /><path d="M768 480L768 504L792 504L792 480Z" fill="#010305" stroke-width="0" /><path d="M792 480L792 504L816 504L816 480Z" fill="#010305" stroke-width="0" /><path d="M72 504L72 528L96 528L96 504Z" fill="#010305" stroke-width="0" /><path d="M96 504L96 528L120 528L120 504Z" fill="#f7ff19" stroke-width="0" /><path d="M120 504L120 528L144 528L144 504Z" fill="#f7ff19" stroke-width="0" /><path d="M144 504L144 528L168 528L168 504Z" fill="#f7ff19" stroke-width="0" /><path d="M168 504L168 528L192 528L192 504Z" fill="#f7ff19" stroke-width="0" /><path d="M192 504L192 528L216 528L216 504Z" fill="#f7ff19" stroke-width="0" /><path d="M216 504L216 528L240 528L240 504Z" fill="#f7ff19" stroke-width="0" /><path d="M240 504L240 528L264 528L264 504Z" fill="#f7ff19" stroke-width="0" /><path d="M264 504L264 528L288 528L288 504Z" fill="#f7ff19" stroke-width="0" /><path d="M288 504L288 528L312 528L312 504Z" fill="#f7ff19" stroke-width="0" /><path d="M312 504L312 528L336 528L336 504Z" fill="#010305" stroke-width="0" /><path d="M576 504L576 528L600 528L600 504Z" fill="#010305" stroke-width="0" /><path d="M600 504L600 528L624 528L624 504Z" fill="#f7ff19" stroke-width="0" /><path d="M624 504L624 528L648 528L648 504Z" fill="#f7ff19" stroke-width="0" /><path d="M648 504L648 528L672 528L672 504Z" fill="#f7ff19" stroke-width="0" /><path d="M672 504L672 528L696 528L696 504Z" fill="#f7ff19" stroke-width="0" /><path d="M696 504L696 528L720 528L720 504Z" fill="#f7ff19" stroke-width="0" /><path d="M720 504L720 528L744 528L744 504Z" fill="#f7ff19" stroke-width="0" /><path d="M744 504L744 528L768 528L768 504Z" fill="#f7ff19" stroke-width="0" /><path d="M768 504L768 528L792 528L792 504Z" fill="#f7ff19" stroke-width="0" /><path d="M792 504L792 528L816 528L816 504Z" fill="#f7ff19" stroke-width="0" /><path d="M816 504L816 528L840 528L840 504Z" fill="#010305" stroke-width="0" /><path d="M48 528L48 552L72 552L72 528Z" fill="#010305" stroke-width="0" /><path d="M72 528L72 552L96 552L96 528Z" fill="#f7ff19" stroke-width="0" /><path d="M96 528L96 552L120 552L120 528Z" fill="#f7ff19" stroke-width="0" /><path d="M120 528L120 552L144 552L144 528Z" fill="#f7ff19" stroke-width="0" /><path d="M144 528L144 552L168 552L168 528Z" fill="#f7ff19" stroke-width="0" /><path d="M168 528L168 552L192 552L192 528Z" fill="#f7ff19" stroke-width="0" /><path d="M192 528L192 552L216 552L216 528Z" fill="#f7ff19" stroke-width="0" /><path d="M216 528L216 552L240 552L240 528Z" fill="#f7ff19" stroke-width="0" /><path d="M240 528L240 552L264 552L264 528Z" fill="#f7ff19" stroke-width="0" /><path d="M264 528L264 552L288 552L288 528Z" fill="#f7ff19" stroke-width="0" /><path d="M288 528L288 552L312 552L312 528Z" fill="#f7ff19" stroke-width="0" /><path d="M312 528L312 552L336 552L336 528Z" fill="#f7ff19" stroke-width="0" /><path d="M336 528L336 552L360 552L360 528Z" fill="#010305" stroke-width="0" /><path d="M552 528L552 552L576 552L576 528Z" fill="#010305" stroke-width="0" /><path d="M576 528L576 552L600 552L600 528Z" fill="#f7ff19" stroke-width="0" /><path d="M600 528L600 552L624 552L624 528Z" fill="#f7ff19" stroke-width="0" /><path d="M624 528L624 552L648 552L648 528Z" fill="#f7ff19" stroke-width="0" /><path d="M648 528L648 552L672 552L672 528Z" fill="#f7ff19" stroke-width="0" /><path d="M672 528L672 552L696 552L696 528Z" fill="#f7ff19" stroke-width="0" /><path d="M696 528L696 552L720 552L720 528Z" fill="#f7ff19" stroke-width="0" /><path d="M720 528L720 552L744 552L744 528Z" fill="#f7ff19" stroke-width="0" /><path d="M744 528L744 552L768 552L768 528Z" fill="#f7ff19" stroke-width="0" /><path d="M768 528L768 552L792 552L792 528Z" fill="#f7ff19" stroke-width="0" /><path d="M792 528L792 552L816 552L816 528Z" fill="#f7ff19" stroke-width="0" /><path d="M816 528L816 552L840 552L840 528Z" fill="#f7ff19" stroke-width="0" /><path d="M840 528L840 552L864 552L864 528Z" fill="#010305" stroke-width="0" /><path d="M24 552L24 576L48 576L48 552Z" fill="#010305" stroke-width="0" /><path d="M48 552L48 576L72 576L72 552Z" fill="#f7ff19" stroke-width="0" /><path d="M72 552L72 576L96 576L96 552Z" fill="#f7ff19" stroke-width="0" /><path d="M96 552L96 576L120 576L120 552Z" fill="#f7ff19" stroke-width="0" /><path d="M120 552L120 576L144 576L144 552Z" fill="#f7ff19" stroke-width="0" /><path d="M144 552L144 576L168 576L168 552Z" fill="#f7ff19" stroke-width="0" /><path d="M168 552L168 576L192 576L192 552Z" fill="#f7ff19" stroke-width="0" /><path d="M192 552L192 576L216 576L216 552Z" fill="#f7ff19" stroke-width="0" /><path d="M216 552L216 576L240 576L240 552Z" fill="#f7ff19" stroke-width="0" /><path d="M240 552L240 576L264 576L264 552Z" fill="#f7ff19" stroke-width="0" /><path d="M264 552L264 576L288 576L288 552Z" fill="#f7ff19" stroke-width="0" /><path d="M288 552L288 576L312 576L312 552Z" fill="#f7ff19" stroke-width="0" /><path d="M312 552L312 576L336 576L336 552Z" fill="#f7ff19" stroke-width="0" /><path d="M336 552L336 576L360 576L360 552Z" fill="#f7ff19" stroke-width="0" /><path d="M360 552L360 576L384 576L384 552Z" fill="#010305" stroke-width="0" /><path d="M528 552L528 576L552 576L552 552Z" fill="#010305" stroke-width="0" /><path d="M552 552L552 576L576 576L576 552Z" fill="#f7ff19" stroke-width="0" /><path d="M576 552L576 576L600 576L600 552Z" fill="#f7ff19" stroke-width="0" /><path d="M600 552L600 576L624 576L624 552Z" fill="#010305" stroke-width="0" /><path d="M624 552L624 576L648 576L648 552Z" fill="#f7ff19" stroke-width="0" /><path d="M648 552L648 576L672 576L672 552Z" fill="#010305" stroke-width="0" /><path d="M672 552L672 576L696 576L696 552Z" fill="#f7ff19" stroke-width="0" /><path d="M696 552L696 576L720 576L720 552Z" fill="#f7ff19" stroke-width="0" /><path d="M720 552L720 576L744 576L744 552Z" fill="#f7ff19" stroke-width="0" /><path d="M744 552L744 576L768 576L768 552Z" fill="#010305" stroke-width="0" /><path d="M768 552L768 576L792 576L792 552Z" fill="#f7ff19" stroke-width="0" /><path d="M792 552L792 576L816 576L816 552Z" fill="#010305" stroke-width="0" /><path d="M816 552L816 576L840 576L840 552Z" fill="#f7ff19" stroke-width="0" /><path d="M840 552L840 576L864 576L864 552Z" fill="#f7ff19" stroke-width="0" /><path d="M864 552L864 576L888 576L888 552Z" fill="#010305" stroke-width="0" /><path d="M24 576L24 600L48 600L48 576Z" fill="#010305" stroke-width="0" /><path d="M48 576L48 600L72 600L72 576Z" fill="#f7ff19" stroke-width="0" /><path d="M72 576L72 600L96 600L96 576Z" fill="#f7ff19" stroke-width="0" /><path d="M96 576L96 600L120 600L120 576Z" fill="#010305" stroke-width="0" /><path d="M120 576L120 600L144 600L144 576Z" fill="#010305" stroke-width="0" /><path d="M144 576L144 600L168 600L168 576Z" fill="#010305" stroke-width="0" /><path d="M168 576L168 600L192 600L192 576Z" fill="#010305" stroke-width="0" /><path d="M192 576L192 600L216 600L216 576Z" fill="#010305" stroke-width="0" /><path d="M216 576L216 600L240 600L240 576Z" fill="#010305" stroke-width="0" /><path d="M240 576L240 600L264 600L264 576Z" fill="#010305" stroke-width="0" /><path d="M264 576L264 600L288 600L288 576Z" fill="#010305" stroke-width="0" /><path d="M288 576L288 600L312 600L312 576Z" fill="#010305" stroke-width="0" /><path d="M312 576L312 600L336 600L336 576Z" fill="#f7ff19" stroke-width="0" /><path d="M336 576L336 600L360 600L360 576Z" fill="#f7ff19" stroke-width="0" /><path d="M360 576L360 600L384 600L384 576Z" fill="#010305" stroke-width="0" /><path d="M528 576L528 600L552 600L552 576Z" fill="#010305" stroke-width="0" /><path d="M552 576L552 600L576 600L576 576Z" fill="#f7ff19" stroke-width="0" /><path d="M576 576L576 600L600 600L600 576Z" fill="#f7ff19" stroke-width="0" /><path d="M600 576L600 600L624 600L624 576Z" fill="#f7ff19" stroke-width="0" /><path d="M624 576L624 600L648 600L648 576Z" fill="#010305" stroke-width="0" /><path d="M648 576L648 600L672 600L672 576Z" fill="#f7ff19" stroke-width="0" /><path d="M672 576L672 600L696 600L696 576Z" fill="#f7ff19" stroke-width="0" /><path d="M696 576L696 600L720 600L720 576Z" fill="#f7ff19" stroke-width="0" /><path d="M720 576L720 600L744 600L744 576Z" fill="#f7ff19" stroke-width="0" /><path d="M744 576L744 600L768 600L768 576Z" fill="#f7ff19" stroke-width="0" /><path d="M768 576L768 600L792 600L792 576Z" fill="#010305" stroke-width="0" /><path d="M792 576L792 600L816 600L816 576Z" fill="#f7ff19" stroke-width="0" /><path d="M816 576L816 600L840 600L840 576Z" fill="#f7ff19" stroke-width="0" /><path d="M840 576L840 600L864 600L864 576Z" fill="#f7ff19" stroke-width="0" /><path d="M864 576L864 600L888 600L888 576Z" fill="#010305" stroke-width="0" /><path d="M0 600L0 624L24 624L24 600Z" fill="#010305" stroke-width="0" /><path d="M24 600L24 624L48 624L48 600Z" fill="#f7ff19" stroke-width="0" /><path d="M48 600L48 624L72 624L72 600Z" fill="#f7ff19" stroke-width="0" /><path d="M72 600L72 624L96 624L96 600Z" fill="#010305" stroke-width="0" /><path d="M96 600L96 624L120 624L120 600Z" fill="#010305" stroke-width="0" /><path d="M120 600L120 624L144 624L144 600Z" fill="#010305" stroke-width="0" /><path d="M144 600L144 624L168 624L168 600Z" fill="#010305" stroke-width="0" /><path d="M168 600L168 624L192 624L192 600Z" fill="#010305" stroke-width="0" /><path d="M192 600L192 624L216 624L216 600Z" fill="#f7ff19" stroke-width="0" /><path d="M216 600L216 624L240 624L240 600Z" fill="#010305" stroke-width="0" /><path d="M240 600L240 624L264 624L264 600Z" fill="#010305" stroke-width="0" /><path d="M264 600L264 624L288 624L288 600Z" fill="#010305" stroke-width="0" /><path d="M288 600L288 624L312 624L312 600Z" fill="#010305" stroke-width="0" /><path d="M312 600L312 624L336 624L336 600Z" fill="#010305" stroke-width="0" /><path d="M336 600L336 624L360 624L360 600Z" fill="#f7ff19" stroke-width="0" /><path d="M360 600L360 624L384 624L384 600Z" fill="#f7ff19" stroke-width="0" /><path d="M384 600L384 624L408 624L408 600Z" fill="#010305" stroke-width="0" /><path d="M504 600L504 624L528 624L528 600Z" fill="#010305" stroke-width="0" /><path d="M528 600L528 624L552 624L552 600Z" fill="#f7ff19" stroke-width="0" /><path d="M552 600L552 624L576 624L576 600Z" fill="#f7ff19" stroke-width="0" /><path d="M576 600L576 624L600 624L600 600Z" fill="#f7ff19" stroke-width="0" /><path d="M600 600L600 624L624 624L624 600Z" fill="#010305" stroke-width="0" /><path d="M624 600L624 624L648 624L648 600Z" fill="#f7ff19" stroke-width="0" /><path d="M648 600L648 624L672 624L672 600Z" fill="#010305" stroke-width="0" /><path d="M672 600L672 624L696 624L696 600Z" fill="#f7ff19" stroke-width="0" /><path d="M696 600L696 624L720 624L720 600Z" fill="#f7ff19" stroke-width="0" /><path d="M720 600L720 624L744 624L744 600Z" fill="#f7ff19" stroke-width="0" /><path d="M744 600L744 624L768 624L768 600Z" fill="#010305" stroke-width="0" /><path d="M768 600L768 624L792 624L792 600Z" fill="#f7ff19" stroke-width="0" /><path d="M792 600L792 624L816 624L816 600Z" fill="#010305" stroke-width="0" /><path d="M816 600L816 624L840 624L840 600Z" fill="#f7ff19" stroke-width="0" /><path d="M840 600L840 624L864 624L864 600Z" fill="#f7ff19" stroke-width="0" /><path d="M864 600L864 624L888 624L888 600Z" fill="#f7ff19" stroke-width="0" /><path d="M888 600L888 624L912 624L912 600Z" fill="#010305" stroke-width="0" /><path d="M0 624L0 648L24 648L24 624Z" fill="#010305" stroke-width="0" /><path d="M24 624L24 648L48 648L48 624Z" fill="#f7ff19" stroke-width="0" /><path d="M48 624L48 648L72 648L72 624Z" fill="#010305" stroke-width="0" /><path d="M72 624L72 648L96 648L96 624Z" fill="#f7ff19" stroke-width="0" /><path d="M96 624L96 648L120 648L120 624Z" fill="#010305" stroke-width="0" /><path d="M120 624L120 648L144 648L144 624Z" fill="#010305" stroke-width="0" /><path d="M144 624L144 648L168 648L168 624Z" fill="#010305" stroke-width="0" /><path d="M168 624L168 648L192 648L192 624Z" fill="#010305" stroke-width="0" /><path d="M192 624L192 648L216 648L216 624Z" fill="#f7ff19" stroke-width="0" /><path d="M216 624L216 648L240 648L240 624Z" fill="#010305" stroke-width="0" /><path d="M240 624L240 648L264 648L264 624Z" fill="#010305" stroke-width="0" /><path d="M264 624L264 648L288 648L288 624Z" fill="#010305" stroke-width="0" /><path d="M288 624L288 648L312 648L312 624Z" fill="#010305" stroke-width="0" /><path d="M312 624L312 648L336 648L336 624Z" fill="#f7ff19" stroke-width="0" /><path d="M336 624L336 648L360 648L360 624Z" fill="#010305" stroke-width="0" /><path d="M360 624L360 648L384 648L384 624Z" fill="#f7ff19" stroke-width="0" /><path d="M384 624L384 648L408 648L408 624Z" fill="#010305" stroke-width="0" /><path d="M504 624L504 648L528 648L528 624Z" fill="#010305" stroke-width="0" /><path d="M528 624L528 648L552 648L552 624Z" fill="#f7ff19" stroke-width="0" /><path d="M552 624L552 648L576 648L576 624Z" fill="#f7ff19" stroke-width="0" /><path d="M576 624L576 648L600 648L600 624Z" fill="#f7ff19" stroke-width="0" /><path d="M600 624L600 648L624 648L624 624Z" fill="#f7ff19" stroke-width="0" /><path d="M624 624L624 648L648 648L648 624Z" fill="#f7ff19" stroke-width="0" /><path d="M648 624L648 648L672 648L672 624Z" fill="#f7ff19" stroke-width="0" /><path d="M672 624L672 648L696 648L696 624Z" fill="#f7ff19" stroke-width="0" /><path d="M696 624L696 648L720 648L720 624Z" fill="#f7ff19" stroke-width="0" /><path d="M720 624L720 648L744 648L744 624Z" fill="#f7ff19" stroke-width="0" /><path d="M744 624L744 648L768 648L768 624Z" fill="#f7ff19" stroke-width="0" /><path d="M768 624L768 648L792 648L792 624Z" fill="#f7ff19" stroke-width="0" /><path d="M792 624L792 648L816 648L816 624Z" fill="#f7ff19" stroke-width="0" /><path d="M816 624L816 648L840 648L840 624Z" fill="#f7ff19" stroke-width="0" /><path d="M840 624L840 648L864 648L864 624Z" fill="#f7ff19" stroke-width="0" /><path d="M864 624L864 648L888 648L888 624Z" fill="#f7ff19" stroke-width="0" /><path d="M888 624L888 648L912 648L912 624Z" fill="#010305" stroke-width="0" /><path d="M0 648L0 672L24 672L24 648Z" fill="#010305" stroke-width="0" /><path d="M24 648L24 672L48 672L48 648Z" fill="#010305" stroke-width="0" /><path d="M48 648L48 672L72 672L72 648Z" fill="#f7ff19" stroke-width="0" /><path d="M72 648L72 672L96 672L96 648Z" fill="#f7ff19" stroke-width="0" /><path d="M96 648L96 672L120 672L120 648Z" fill="#f7ff19" stroke-width="0" /><path d="M120 648L120 672L144 672L144 648Z" fill="#010305" stroke-width="0" /><path d="M144 648L144 672L168 672L168 648Z" fill="#010305" stroke-width="0" /><path d="M168 648L168 672L192 672L192 648Z" fill="#f7ff19" stroke-width="0" /><path d="M192 648L192 672L216 672L216 648Z" fill="#f7ff19" stroke-width="0" /><path d="M216 648L216 672L240 672L240 648Z" fill="#f7ff19" stroke-width="0" /><path d="M240 648L240 672L264 672L264 648Z" fill="#010305" stroke-width="0" /><path d="M264 648L264 672L288 672L288 648Z" fill="#010305" stroke-width="0" /><path d="M288 648L288 672L312 672L312 648Z" fill="#f7ff19" stroke-width="0" /><path d="M312 648L312 672L336 672L336 648Z" fill="#f7ff19" stroke-width="0" /><path d="M336 648L336 672L360 672L360 648Z" fill="#f7ff19" stroke-width="0" /><path d="M360 648L360 672L384 672L384 648Z" fill="#010305" stroke-width="0" /><path d="M384 648L384 672L408 672L408 648Z" fill="#010305" stroke-width="0" /><path d="M504 648L504 672L528 672L528 648Z" fill="#010305" stroke-width="0" /><path d="M528 648L528 672L552 672L552 648Z" fill="#f7ff19" stroke-width="0" /><path d="M552 648L552 672L576 672L576 648Z" fill="#f7ff19" stroke-width="0" /><path d="M576 648L576 672L600 672L600 648Z" fill="#f7ff19" stroke-width="0" /><path d="M600 648L600 672L624 672L624 648Z" fill="#f7ff19" stroke-width="0" /><path d="M624 648L624 672L648 672L648 648Z" fill="#f7ff19" stroke-width="0" /><path d="M648 648L648 672L672 672L672 648Z" fill="#f7ff19" stroke-width="0" /><path d="M672 648L672 672L696 672L696 648Z" fill="#f7ff19" stroke-width="0" /><path d="M696 648L696 672L720 672L720 648Z" fill="#f7ff19" stroke-width="0" /><path d="M720 648L720 672L744 672L744 648Z" fill="#f7ff19" stroke-width="0" /><path d="M744 648L744 672L768 672L768 648Z" fill="#f7ff19" stroke-width="0" /><path d="M768 648L768 672L792 672L792 648Z" fill="#f7ff19" stroke-width="0" /><path d="M792 648L792 672L816 672L816 648Z" fill="#f7ff19" stroke-width="0" /><path d="M816 648L816 672L840 672L840 648Z" fill="#f7ff19" stroke-width="0" /><path d="M840 648L840 672L864 672L864 648Z" fill="#f7ff19" stroke-width="0" /><path d="M864 648L864 672L888 672L888 648Z" fill="#f7ff19" stroke-width="0" /><path d="M888 648L888 672L912 672L912 648Z" fill="#010305" stroke-width="0" /><path d="M0 672L0 696L24 696L24 672Z" fill="#010305" stroke-width="0" /><path d="M24 672L24 696L48 696L48 672Z" fill="#f7ff19" stroke-width="0" /><path d="M48 672L48 696L72 696L72 672Z" fill="#f7ff19" stroke-width="0" /><path d="M72 672L72 696L96 696L96 672Z" fill="#f7ff19" stroke-width="0" /><path d="M96 672L96 696L120 696L120 672Z" fill="#f7ff19" stroke-width="0" /><path d="M120 672L120 696L144 696L144 672Z" fill="#f7ff19" stroke-width="0" /><path d="M144 672L144 696L168 696L168 672Z" fill="#f7ff19" stroke-width="0" /><path d="M168 672L168 696L192 696L192 672Z" fill="#f7ff19" stroke-width="0" /><path d="M192 672L192 696L216 696L216 672Z" fill="#f7ff19" stroke-width="0" /><path d="M216 672L216 696L240 696L240 672Z" fill="#f7ff19" stroke-width="0" /><path d="M240 672L240 696L264 696L264 672Z" fill="#f7ff19" stroke-width="0" /><path d="M264 672L264 696L288 696L288 672Z" fill="#f7ff19" stroke-width="0" /><path d="M288 672L288 696L312 696L312 672Z" fill="#f7ff19" stroke-width="0" /><path d="M312 672L312 696L336 696L336 672Z" fill="#f7ff19" stroke-width="0" /><path d="M336 672L336 696L360 696L360 672Z" fill="#f7ff19" stroke-width="0" /><path d="M360 672L360 696L384 696L384 672Z" fill="#f7ff19" stroke-width="0" /><path d="M384 672L384 696L408 696L408 672Z" fill="#010305" stroke-width="0" /><path d="M504 672L504 696L528 696L528 672Z" fill="#010305" stroke-width="0" /><path d="M528 672L528 696L552 696L552 672Z" fill="#f7ff19" stroke-width="0" /><path d="M552 672L552 696L576 696L576 672Z" fill="#f7ff19" stroke-width="0" /><path d="M576 672L576 696L600 696L600 672Z" fill="#f7ff19" stroke-width="0" /><path d="M600 672L600 696L624 696L624 672Z" fill="#f7ff19" stroke-width="0" /><path d="M624 672L624 696L648 696L648 672Z" fill="#f7ff19" stroke-width="0" /><path d="M648 672L648 696L672 696L672 672Z" fill="#f7ff19" stroke-width="0" /><path d="M672 672L672 696L696 696L696 672Z" fill="#f7ff19" stroke-width="0" /><path d="M696 672L696 696L720 696L720 672Z" fill="#f7ff19" stroke-width="0" /><path d="M720 672L720 696L744 696L744 672Z" fill="#f7ff19" stroke-width="0" /><path d="M744 672L744 696L768 696L768 672Z" fill="#f7ff19" stroke-width="0" /><path d="M768 672L768 696L792 696L792 672Z" fill="#f7ff19" stroke-width="0" /><path d="M792 672L792 696L816 696L816 672Z" fill="#f7ff19" stroke-width="0" /><path d="M816 672L816 696L840 696L840 672Z" fill="#f7ff19" stroke-width="0" /><path d="M840 672L840 696L864 696L864 672Z" fill="#f7ff19" stroke-width="0" /><path d="M864 672L864 696L888 696L888 672Z" fill="#f7ff19" stroke-width="0" /><path d="M888 672L888 696L912 696L912 672Z" fill="#010305" stroke-width="0" /><path d="M0 696L0 720L24 720L24 696Z" fill="#010305" stroke-width="0" /><path d="M24 696L24 720L48 720L48 696Z" fill="#f7ff19" stroke-width="0" /><path d="M48 696L48 720L72 720L72 696Z" fill="#f7ff19" stroke-width="0" /><path d="M72 696L72 720L96 720L96 696Z" fill="#f7ff19" stroke-width="0" /><path d="M96 696L96 720L120 720L120 696Z" fill="#f7ff19" stroke-width="0" /><path d="M120 696L120 720L144 720L144 696Z" fill="#f7ff19" stroke-width="0" /><path d="M144 696L144 720L168 720L168 696Z" fill="#f7ff19" stroke-width="0" /><path d="M168 696L168 720L192 720L192 696Z" fill="#f7ff19" stroke-width="0" /><path d="M192 696L192 720L216 720L216 696Z" fill="#f7ff19" stroke-width="0" /><path d="M216 696L216 720L240 720L240 696Z" fill="#f7ff19" stroke-width="0" /><path d="M240 696L240 720L264 720L264 696Z" fill="#f7ff19" stroke-width="0" /><path d="M264 696L264 720L288 720L288 696Z" fill="#f7ff19" stroke-width="0" /><path d="M288 696L288 720L312 720L312 696Z" fill="#f7ff19" stroke-width="0" /><path d="M312 696L312 720L336 720L336 696Z" fill="#f7ff19" stroke-width="0" /><path d="M336 696L336 720L360 720L360 696Z" fill="#f7ff19" stroke-width="0" /><path d="M360 696L360 720L384 720L384 696Z" fill="#f7ff19" stroke-width="0" /><path d="M384 696L384 720L408 720L408 696Z" fill="#010305" stroke-width="0" /><path d="M504 696L504 720L528 720L528 696Z" fill="#010305" stroke-width="0" /><path d="M528 696L528 720L552 720L552 696Z" fill="#f7ff19" stroke-width="0" /><path d="M552 696L552 720L576 720L576 696Z" fill="#f7ff19" stroke-width="0" /><path d="M576 696L576 720L600 720L600 696Z" fill="#f7ff19" stroke-width="0" /><path d="M600 696L600 720L624 720L624 696Z" fill="#f7ff19" stroke-width="0" /><path d="M624 696L624 720L648 720L648 696Z" fill="#f7ff19" stroke-width="0" /><path d="M648 696L648 720L672 720L672 696Z" fill="#010305" stroke-width="0" /><path d="M672 696L672 720L696 720L696 696Z" fill="#010305" stroke-width="0" /><path d="M696 696L696 720L720 720L720 696Z" fill="#010305" stroke-width="0" /><path d="M720 696L720 720L744 720L744 696Z" fill="#010305" stroke-width="0" /><path d="M744 696L744 720L768 720L768 696Z" fill="#010305" stroke-width="0" /><path d="M768 696L768 720L792 720L792 696Z" fill="#f7ff19" stroke-width="0" /><path d="M792 696L792 720L816 720L816 696Z" fill="#f7ff19" stroke-width="0" /><path d="M816 696L816 720L840 720L840 696Z" fill="#f7ff19" stroke-width="0" /><path d="M840 696L840 720L864 720L864 696Z" fill="#f7ff19" stroke-width="0" /><path d="M864 696L864 720L888 720L888 696Z" fill="#f7ff19" stroke-width="0" /><path d="M888 696L888 720L912 720L912 696Z" fill="#010305" stroke-width="0" /><path d="M24 720L24 744L48 744L48 720Z" fill="#010305" stroke-width="0" /><path d="M48 720L48 744L72 744L72 720Z" fill="#f7ff19" stroke-width="0" /><path d="M72 720L72 744L96 744L96 720Z" fill="#f7ff19" stroke-width="0" /><path d="M96 720L96 744L120 744L120 720Z" fill="#f7ff19" stroke-width="0" /><path d="M120 720L120 744L144 744L144 720Z" fill="#f7ff19" stroke-width="0" /><path d="M144 720L144 744L168 744L168 720Z" fill="#f7ff19" stroke-width="0" /><path d="M168 720L168 744L192 744L192 720Z" fill="#f7ff19" stroke-width="0" /><path d="M192 720L192 744L216 744L216 720Z" fill="#f7ff19" stroke-width="0" /><path d="M216 720L216 744L240 744L240 720Z" fill="#f7ff19" stroke-width="0" /><path d="M240 720L240 744L264 744L264 720Z" fill="#f7ff19" stroke-width="0" /><path d="M264 720L264 744L288 744L288 720Z" fill="#f7ff19" stroke-width="0" /><path d="M288 720L288 744L312 744L312 720Z" fill="#f7ff19" stroke-width="0" /><path d="M312 720L312 744L336 744L336 720Z" fill="#f7ff19" stroke-width="0" /><path d="M336 720L336 744L360 744L360 720Z" fill="#f7ff19" stroke-width="0" /><path d="M360 720L360 744L384 744L384 720Z" fill="#010305" stroke-width="0" /><path d="M528 720L528 744L552 744L552 720Z" fill="#010305" stroke-width="0" /><path d="M552 720L552 744L576 744L576 720Z" fill="#f7ff19" stroke-width="0" /><path d="M576 720L576 744L600 744L600 720Z" fill="#f7ff19" stroke-width="0" /><path d="M600 720L600 744L624 744L624 720Z" fill="#f7ff19" stroke-width="0" /><path d="M624 720L624 744L648 744L648 720Z" fill="#010305" stroke-width="0" /><path d="M648 720L648 744L672 744L672 720Z" fill="#f7ff19" stroke-width="0" /><path d="M672 720L672 744L696 744L696 720Z" fill="#f7ff19" stroke-width="0" /><path d="M696 720L696 744L720 744L720 720Z" fill="#f7ff19" stroke-width="0" /><path d="M720 720L720 744L744 744L744 720Z" fill="#f7ff19" stroke-width="0" /><path d="M744 720L744 744L768 744L768 720Z" fill="#f7ff19" stroke-width="0" /><path d="M768 720L768 744L792 744L792 720Z" fill="#010305" stroke-width="0" /><path d="M792 720L792 744L816 744L816 720Z" fill="#f7ff19" stroke-width="0" /><path d="M816 720L816 744L840 744L840 720Z" fill="#f7ff19" stroke-width="0" /><path d="M840 720L840 744L864 744L864 720Z" fill="#f7ff19" stroke-width="0" /><path d="M864 720L864 744L888 744L888 720Z" fill="#010305" stroke-width="0" /><path d="M24 744L24 768L48 768L48 744Z" fill="#010305" stroke-width="0" /><path d="M48 744L48 768L72 768L72 744Z" fill="#f7ff19" stroke-width="0" /><path d="M72 744L72 768L96 768L96 744Z" fill="#f7ff19" stroke-width="0" /><path d="M96 744L96 768L120 768L120 744Z" fill="#f7ff19" stroke-width="0" /><path d="M120 744L120 768L144 768L144 744Z" fill="#010305" stroke-width="0" /><path d="M144 744L144 768L168 768L168 744Z" fill="#f7ff19" stroke-width="0" /><path d="M168 744L168 768L192 768L192 744Z" fill="#f7ff19" stroke-width="0" /><path d="M192 744L192 768L216 768L216 744Z" fill="#f7ff19" stroke-width="0" /><path d="M216 744L216 768L240 768L240 744Z" fill="#f7ff19" stroke-width="0" /><path d="M240 744L240 768L264 768L264 744Z" fill="#f7ff19" stroke-width="0" /><path d="M264 744L264 768L288 768L288 744Z" fill="#010305" stroke-width="0" /><path d="M288 744L288 768L312 768L312 744Z" fill="#f7ff19" stroke-width="0" /><path d="M312 744L312 768L336 768L336 744Z" fill="#f7ff19" stroke-width="0" /><path d="M336 744L336 768L360 768L360 744Z" fill="#f7ff19" stroke-width="0" /><path d="M360 744L360 768L384 768L384 744Z" fill="#010305" stroke-width="0" /><path d="M528 744L528 768L552 768L552 744Z" fill="#010305" stroke-width="0" /><path d="M552 744L552 768L576 768L576 744Z" fill="#f7ff19" stroke-width="0" /><path d="M576 744L576 768L600 768L600 744Z" fill="#f7ff19" stroke-width="0" /><path d="M600 744L600 768L624 768L624 744Z" fill="#010305" stroke-width="0" /><path d="M624 744L624 768L648 768L648 744Z" fill="#f7ff19" stroke-width="0" /><path d="M648 744L648 768L672 768L672 744Z" fill="#f7ff19" stroke-width="0" /><path d="M672 744L672 768L696 768L696 744Z" fill="#f7ff19" stroke-width="0" /><path d="M696 744L696 768L720 768L720 744Z" fill="#f7ff19" stroke-width="0" /><path d="M720 744L720 768L744 768L744 744Z" fill="#f7ff19" stroke-width="0" /><path d="M744 744L744 768L768 768L768 744Z" fill="#f7ff19" stroke-width="0" /><path d="M768 744L768 768L792 768L792 744Z" fill="#f7ff19" stroke-width="0" /><path d="M792 744L792 768L816 768L816 744Z" fill="#010305" stroke-width="0" /><path d="M816 744L816 768L840 768L840 744Z" fill="#f7ff19" stroke-width="0" /><path d="M840 744L840 768L864 768L864 744Z" fill="#f7ff19" stroke-width="0" /><path d="M864 744L864 768L888 768L888 744Z" fill="#010305" stroke-width="0" /><path d="M48 768L48 792L72 792L72 768Z" fill="#010305" stroke-width="0" /><path d="M72 768L72 792L96 792L96 768Z" fill="#f7ff19" stroke-width="0" /><path d="M96 768L96 792L120 792L120 768Z" fill="#f7ff19" stroke-width="0" /><path d="M120 768L120 792L144 792L144 768Z" fill="#f7ff19" stroke-width="0" /><path d="M144 768L144 792L168 792L168 768Z" fill="#010305" stroke-width="0" /><path d="M168 768L168 792L192 792L192 768Z" fill="#010305" stroke-width="0" /><path d="M192 768L192 792L216 792L216 768Z" fill="#010305" stroke-width="0" /><path d="M216 768L216 792L240 792L240 768Z" fill="#010305" stroke-width="0" /><path d="M240 768L240 792L264 792L264 768Z" fill="#010305" stroke-width="0" /><path d="M264 768L264 792L288 792L288 768Z" fill="#f7ff19" stroke-width="0" /><path d="M288 768L288 792L312 792L312 768Z" fill="#f7ff19" stroke-width="0" /><path d="M312 768L312 792L336 792L336 768Z" fill="#f7ff19" stroke-width="0" /><path d="M336 768L336 792L360 792L360 768Z" fill="#010305" stroke-width="0" /><path d="M552 768L552 792L576 792L576 768Z" fill="#010305" stroke-width="0" /><path d="M576 768L576 792L600 792L600 768Z" fill="#f7ff19" stroke-width="0" /><path d="M600 768L600 792L624 792L624 768Z" fill="#f7ff19" stroke-width="0" /><path d="M624 768L624 792L648 792L648 768Z" fill="#f7ff19" stroke-width="0" /><path d="M648 768L648 792L672 792L672 768Z" fill="#f7ff19" stroke-width="0" /><path d="M672 768L672 792L696 792L696 768Z" fill="#f7ff19" stroke-width="0" /><path d="M696 768L696 792L720 792L720 768Z" fill="#f7ff19" stroke-width="0" /><path d="M720 768L720 792L744 792L744 768Z" fill="#f7ff19" stroke-width="0" /><path d="M744 768L744 792L768 792L768 768Z" fill="#f7ff19" stroke-width="0" /><path d="M768 768L768 792L792 792L792 768Z" fill="#f7ff19" stroke-width="0" /><path d="M792 768L792 792L816 792L816 768Z" fill="#f7ff19" stroke-width="0" /><path d="M816 768L816 792L840 792L840 768Z" fill="#f7ff19" stroke-width="0" /><path d="M840 768L840 792L864 792L864 768Z" fill="#010305" stroke-width="0" /><path d="M72 792L72 816L96 816L96 792Z" fill="#010305" stroke-width="0" /><path d="M96 792L96 816L120 816L120 792Z" fill="#f7ff19" stroke-width="0" /><path d="M120 792L120 816L144 816L144 792Z" fill="#f7ff19" stroke-width="0" /><path d="M144 792L144 816L168 816L168 792Z" fill="#f7ff19" stroke-width="0" /><path d="M168 792L168 816L192 816L192 792Z" fill="#f7ff19" stroke-width="0" /><path d="M192 792L192 816L216 816L216 792Z" fill="#f7ff19" stroke-width="0" /><path d="M216 792L216 816L240 816L240 792Z" fill="#f7ff19" stroke-width="0" /><path d="M240 792L240 816L264 816L264 792Z" fill="#f7ff19" stroke-width="0" /><path d="M264 792L264 816L288 816L288 792Z" fill="#f7ff19" stroke-width="0" /><path d="M288 792L288 816L312 816L312 792Z" fill="#f7ff19" stroke-width="0" /><path d="M312 792L312 816L336 816L336 792Z" fill="#010305" stroke-width="0" /><path d="M576 792L576 816L600 816L600 792Z" fill="#010305" stroke-width="0" /><path d="M600 792L600 816L624 816L624 792Z" fill="#f7ff19" stroke-width="0" /><path d="M624 792L624 816L648 816L648 792Z" fill="#f7ff19" stroke-width="0" /><path d="M648 792L648 816L672 816L672 792Z" fill="#f7ff19" stroke-width="0" /><path d="M672 792L672 816L696 816L696 792Z" fill="#f7ff19" stroke-width="0" /><path d="M696 792L696 816L720 816L720 792Z" fill="#f7ff19" stroke-width="0" /><path d="M720 792L720 816L744 816L744 792Z" fill="#f7ff19" stroke-width="0" /><path d="M744 792L744 816L768 816L768 792Z" fill="#f7ff19" stroke-width="0" /><path d="M768 792L768 816L792 816L792 792Z" fill="#f7ff19" stroke-width="0" /><path d="M792 792L792 816L816 816L816 792Z" fill="#f7ff19" stroke-width="0" /><path d="M816 792L816 816L840 816L840 792Z" fill="#010305" stroke-width="0" /><path d="M96 816L96 840L120 840L120 816Z" fill="#010305" stroke-width="0" /><path d="M120 816L120 840L144 840L144 816Z" fill="#010305" stroke-width="0" /><path d="M144 816L144 840L168 840L168 816Z" fill="#f7ff19" stroke-width="0" /><path d="M168 816L168 840L192 840L192 816Z" fill="#f7ff19" stroke-width="0" /><path d="M192 816L192 840L216 840L216 816Z" fill="#f7ff19" stroke-width="0" /><path d="M216 816L216 840L240 840L240 816Z" fill="#f7ff19" stroke-width="0" /><path d="M240 816L240 840L264 840L264 816Z" fill="#f7ff19" stroke-width="0" /><path d="M264 816L264 840L288 840L288 816Z" fill="#010305" stroke-width="0" /><path d="M288 816L288 840L312 840L312 816Z" fill="#010305" stroke-width="0" /><path d="M600 816L600 840L624 840L624 816Z" fill="#010305" stroke-width="0" /><path d="M624 816L624 840L648 840L648 816Z" fill="#010305" stroke-width="0" /><path d="M648 816L648 840L672 840L672 816Z" fill="#f7ff19" stroke-width="0" /><path d="M672 816L672 840L696 840L696 816Z" fill="#f7ff19" stroke-width="0" /><path d="M696 816L696 840L720 840L720 816Z" fill="#f7ff19" stroke-width="0" /><path d="M720 816L720 840L744 840L744 816Z" fill="#f7ff19" stroke-width="0" /><path d="M744 816L744 840L768 840L768 816Z" fill="#f7ff19" stroke-width="0" /><path d="M768 816L768 840L792 840L792 816Z" fill="#010305" stroke-width="0" /><path d="M792 816L792 840L816 840L816 816Z" fill="#010305" stroke-width="0" /><path d="M144 840L144 864L168 864L168 840Z" fill="#010305" stroke-width="0" /><path d="M168 840L168 864L192 864L192 840Z" fill="#010305" stroke-width="0" /><path d="M192 840L192 864L216 864L216 840Z" fill="#010305" stroke-width="0" /><path d="M216 840L216 864L240 864L240 840Z" fill="#010305" stroke-width="0" /><path d="M240 840L240 864L264 864L264 840Z" fill="#010305" stroke-width="0" /><path d="M648 840L648 864L672 864L672 840Z" fill="#010305" stroke-width="0" /><path d="M672 840L672 864L696 864L696 840Z" fill="#010305" stroke-width="0" /><path d="M696 840L696 864L720 864L720 840Z" fill="#010305" stroke-width="0" /><path d="M720 840L720 864L744 864L744 840Z" fill="#010305" stroke-width="0" /><path d="M744 840L744 864L768 864L768 840Z" fill="#010305" stroke-width="0" /></svg>